<svg xmlns="http://www.w3.org/2000/svg" width="1087.54" height="323.173" viewBox="0 0 1087.54 323.173"><defs><style>.a{fill:#00a2a7;}.b{fill:#fff;}</style></defs><g transform="translate(1218.753 -559.135)"><path class="a" d="M1147.368,664.738H772.039l-5.525,9.583H1152.5ZM803.486,532.216h343.883l5.046-9.583H793.937C798.364,524.457,801.392,528.229,803.486,532.216Zm350.126-17.505L782.08,507.58l4.1,7.13Zm-733.2,17.505c2.081-4.012,5.109-7.772,9.536-9.583H71.433l5.046,9.583ZM68.33,682.181,463.993,689.3l-4.049-7.118Zm695.926,0-4.049,7.118,395.663-7.118ZM439.875,507.58,68.33,514.71H435.775ZM71.433,674.321H456.488l-4.579-9.583H76.529Z" transform="translate(-1287.083 119.526)"/><path class="a" d="M530.2,463.792a151.247,151.247,0,0,1,82.735,24.523h17.735a162.49,162.49,0,0,0-200.941,0h17.748A151.169,151.169,0,0,1,530.2,463.792Zm137.808,214.73a151.94,151.94,0,0,1-275.6,0H381.05a162.347,162.347,0,0,0,298.257,0Z" transform="translate(-1205.339 105.605)"/><path class="a" d="M637.536,685.213a7.575,7.575,0,0,1-6.307-3.4h-.2c-9.953,0-14.519-11.784-17.1-20.649-2.964-10.211-5.247-24.3-6.6-40.72a7.368,7.368,0,0,1,1.993-5.646,7.654,7.654,0,0,1,5.55-2.377h8.59a7.766,7.766,0,0,1,2.157.3c.189-1.861.366-3.773.53-5.646H458.43a8.53,8.53,0,0,1-1.388-.126c.152,1.937.341,3.873.53,5.772a7.766,7.766,0,0,1,2.157-.3h8.59a7.7,7.7,0,0,1,5.563,2.377,7.341,7.341,0,0,1,1.98,5.7c-1.35,16.436-3.633,30.521-6.6,40.733-2.523,8.8-7.152,20.649-17.092,20.649h-.214a7.574,7.574,0,0,1-6.307,3.4H424.839c-8.06,0-14.657-7.168-19.627-21.291a8.363,8.363,0,0,1-1.261.1H393.758c-8.641,0-15.137-8.489-19.5-25.252H367.95c-9.246,0-12.753-10.954-14.594-19.191a118.735,118.735,0,0,1-2.031-12.513h-3.683c-8.83,0-10.091-10.778-10.091-21.379s1.2-21.378,10.091-21.378h3.683a118.945,118.945,0,0,1,2.031-12.5c1.841-8.237,5.348-19.2,14.594-19.2h6.307c4.314-16.751,10.861-25.239,19.5-25.239H403.95a6.962,6.962,0,0,1,1.261.1c4.97-14.135,11.567-21.291,19.627-21.291h36.581a7.575,7.575,0,0,1,6.307,3.4h.315a5.357,5.357,0,0,1,4.554,1.773c1.715,2.251.669,5.961-.555,10.262s-2.523,9.092-1.552,13.217c3.1,12.664,5.323,30.182,6.244,49.5H606.4c.933-19.291,3.141-36.834,6.244-49.5.984-4.024-.088-8.727-1.047-12.878-1.022-4.439-1.9-8.275,0-10.576a5.559,5.559,0,0,1,4.667-1.8h.215a7.575,7.575,0,0,1,6.307-3.4h35.521c8.06,0,14.658,7.156,19.64,21.291a6.751,6.751,0,0,1,1.261-.1h10.2c8.628,0,15.137,8.489,19.489,25.24h6.307c9.234,0,12.753,10.966,14.594,19.2a121.429,121.429,0,0,1,2.018,12.5h3.633c8.83,0,10.091,10.79,10.091,21.378s-1.261,21.379-10.091,21.379h-3.683a121.258,121.258,0,0,1-2.018,12.513c-1.842,8.237-5.361,19.191-14.595,19.191h-6.307c-4.3,16.763-10.861,25.252-19.489,25.252h-10.2a8.07,8.07,0,0,1-1.262-.1c-4.982,14.122-11.58,21.291-19.64,21.291Z" transform="translate(-1216.709 114.03)"/><path class="a" d="M145.075.039A145.257,145.257,0,1,1,.039,145.075,145.791,145.791,0,0,1,145.075.039Z" transform="translate(-820.43 575.423)"/><path class="b" d="M514.781,478.8c27.347,0,52.979,8.8,74.75,20.976a124.651,124.651,0,0,0-149.5,0C461.84,487.607,487.433,478.8,514.781,478.8Z" transform="translate(-1189.921 111.104)"/><path class="b" d="M520.513,693.17A145.444,145.444,0,0,1,418.1,651.67a135.06,135.06,0,0,0,204.838,0A145.493,145.493,0,0,1,520.513,693.17Z" transform="translate(-1195.653 156.64)"/><path class="b" d="M425.1,584.593c0-51.862,8.464-93.9,18.921-93.9H423.255c-12.16,0-22.024,42.041-22.024,93.9s9.864,93.865,22.024,93.865h20.763C433.56,678.458,425.1,636.455,425.1,584.593Zm29.744-.252a45.425,45.425,0,0,0,2.006,14.45H624.385a45.423,45.423,0,0,0,2.006-14.45,47.149,47.149,0,0,0-2.006-13.947H456.846A47.156,47.156,0,0,0,454.84,584.341Zm-.631,54.528c-3.3,0-7.253-31.1-7.253-54.277s3.948-41.952,7.253-41.952c2.245,0,4.2,8.665,5.235,21.492h8.186c-1.791-40.079-8.741-69.959-17.042-69.959-9.675,0-17.508,40.494-17.508,90.444s7.833,90.432,17.508,90.432c7.278,0,13.51-22.963,16.146-55.648h-8.59c-1.047,10.01-2.422,19.468-3.935,19.468ZM366.441,538.063c-5.626,0-10.192,20.825-10.192,46.53s4.566,46.53,10.192,46.53h6.433a264.555,264.555,0,0,1,0-93.06Zm27.209,46.53c0-4.464.088-8.8.24-13.066.845-24.108,3.986-45.147,8.489-59.219H392.186c-9.7,0-17.546,32.357-17.546,72.285s7.846,72.285,17.546,72.285h10.192c-4.5-14.085-7.644-35.111-8.489-59.219C393.738,593.421,393.65,589.057,393.65,584.593Zm-47.517-14.2c-1.375,0-2.523,6.288-2.523,14.2s1.135,14.185,2.523,14.185H351.8c-.252-4.464-.391-9.243-.391-14.185s.139-9.721.391-14.2ZM713.54,538.063h-6.433a265.3,265.3,0,0,1,0,93.06h6.433c5.626,0,10.18-20.838,10.18-46.53S719.166,538.063,713.54,538.063Zm20.334,32.332H728.21c.252,4.477.391,9.243.391,14.2s-.139,9.721-.391,14.185h5.664c1.388,0,2.523-6.287,2.523-14.185S735.224,570.395,733.874,570.395Zm-77.122-79.7H635.964c10.444,0,18.921,42.041,18.921,93.9s-8.477,93.89-18.921,93.89h20.75c12.16,0,22.024-42.028,22.024-93.89s-9.864-93.9-22.024-93.9Zm31.081,21.618h-10.2c4.5,14.072,7.644,35.111,8.489,59.219.164,4.238.252,8.6.252,13.066s-.088,8.8-.252,13.066c-.845,24.108-3.986,45.134-8.489,59.219h10.2c9.688,0,17.546-32.37,17.546-72.285s-7.9-72.285-17.584-72.285Zm-58.4-18.159c-8.3,0-15.25,29.88-17.054,69.959h8.2c1.022-12.827,2.977-21.492,5.222-21.492,3.317,0,7.253,18.788,7.253,41.978s-3.936,54.277-7.253,54.277c-1.5,0-2.876-9.419-3.936-19.492h-8.59c2.636,32.7,8.83,55.647,16.158,55.647,9.662,0,17.5-40.481,17.5-90.432s-7.871-90.444-17.533-90.444Z" transform="translate(-1215.125 115.176)"/><rect class="a" width="175.751" height="6.288" transform="translate(-762.379 701.592)"/><rect class="a" width="26.918" height="6.288" transform="translate(-566.547 757.931)"/><rect class="a" width="24.395" height="6.288" transform="translate(-536.879 744.111)"/><rect class="a" width="18.341" height="6.288" transform="translate(-509.632 730.29)"/><path class="a" d="M599.41,616.855c4.289,0,5.9,2.641,4.693,7.357l3.7-8.652Z" transform="translate(-1148.259 147.339)"/><path class="a" d="M621.56,605.852c3.936,0,5.411,2.415,4.3,6.728l3.393-7.91Z" transform="translate(-1142.469 144.534)"/><path class="a" d="M637.84,594.826c2.99,0,4.1,1.823,3.254,5.093l2.523-6Z" transform="translate(-1138.214 141.765)"/><rect class="a" width="26.918" height="6.288" transform="translate(-810.64 757.931)"/><rect class="a" width="24.395" height="6.288" transform="translate(-837.785 744.111)"/><rect class="a" width="18.341" height="6.288" transform="translate(-858.977 730.29)"/><path class="a" d="M400.921,616.855c-4.3,0-5.916,2.641-4.692,7.357l-3.708-8.652Z" transform="translate(-1202.34 147.339)"/><path class="a" d="M378.592,605.852c-3.935,0-5.411,2.415-4.289,6.728l-3.393-7.91Z" transform="translate(-1207.989 144.534)"/><path class="a" d="M361.937,594.826c-2.977,0-4.1,1.823-3.254,5.093l-2.523-6Z" transform="translate(-1211.844 141.765)"/><path class="a" d="M523.017,573.033a30.963,30.963,0,0,1-8.161-1.069,10.551,10.551,0,0,1-6.408-5.219,11.688,11.688,0,0,1-6.383,4.854,20.855,20.855,0,0,1-5.954.729h0a29.989,29.989,0,0,1-6.7-.7,10.089,10.089,0,0,1-6.483-4.7,11.017,11.017,0,0,1-4.806,3.232,23.859,23.859,0,0,1-7.064.931,26.242,26.242,0,0,1-4.352-.327c-3.406-.579-7.72-2.893-8.981-10.664-1.375-8.489-2.725-20.486-2.788-21v-.226c-.517-6.615,3.7-12.048,10.734-13.833a25.454,25.454,0,0,1,5.84-.692,14.79,14.79,0,0,1,5.676.981,16.313,16.313,0,0,1,2.926,1.585,14.882,14.882,0,0,1,10.52-7.671,24.917,24.917,0,0,1,5.121-.5,16.582,16.582,0,0,1,7.568,1.521,16.931,16.931,0,0,1,3.141,2.063,15.8,15.8,0,0,1,11.441-8.677,24.375,24.375,0,0,1,4.579-.415,17.185,17.185,0,0,1,8.83,2.037,16.814,16.814,0,0,1,6.055,6.1,15.886,15.886,0,0,1,8.237-3.71,24.262,24.262,0,0,1,3.33-.227,18.335,18.335,0,0,1,9.322,2.175,15.081,15.081,0,0,1,7.455,13.28c0,.8-.921,16.562-2.233,26.484-.858,6.564-4.642,11.406-9.851,12.576a17.848,17.848,0,0,1-4.062.415A30.607,30.607,0,0,1,540.9,571.1a9.976,9.976,0,0,1-5.512-4.175,12.216,12.216,0,0,1-6.963,5.458,19.646,19.646,0,0,1-5.348.642Z" transform="translate(-1186.035 120.976)"/><path class="b" d="M526.488,518.793c-2.346-1.4-6.812-.842-8.931-.427a9.311,9.311,0,0,0-7.417,9.457s.5,17.116,1.337,28.924c.265,3.672.984,6.841,3.847,7.684a22.084,22.084,0,0,0,9.965.415c2.927-.83,4.592-4.439,4.932-8.1,1-10.966,1.337-28.924,1.337-28.924A11.311,11.311,0,0,0,526.488,518.793Zm-27.019,5.445c-2.233-1.144-6.875-.214-8.83.214-2.712.579-7.051,2.641-6.887,7.973,0,0,.921,14.827,2.018,25.038.341,3.169,1.1,5.9,3.784,6.539a22.362,22.362,0,0,0,9.36.075c2.737-.818,4.213-3.986,4.427-7.168.656-9.532.492-25.151.492-25.151A8.8,8.8,0,0,0,499.468,524.238Zm53.446-1.559a19.828,19.828,0,0,0-9.3-2.213c-2.75.415-5.676,4.716-5.865,10.224,0,0-.076,15.342.328,25.931.126,3.295.706,6.149,3.368,7a21.773,21.773,0,0,0,9.334.717c2.788-.641,4.465-3.772,4.894-7.08,1.261-9.771,2.182-25.831,2.182-25.831.114-3.345-2.5-7.244-4.945-8.753Zm-79.191,6.9c-2.044-.842-6.093.176-7.846.617-2.409.616-6.193,2.515-5.853,6.929,0,0,1.388,12.261,2.75,20.674.429,2.616,1.261,4.842,3.658,5.257a21.508,21.508,0,0,0,8.35-.377c2.409-.8,3.608-3.5,3.683-6.15.215-7.935-.517-20.85-.517-20.85a7.307,7.307,0,0,0-4.226-6.1Z" transform="translate(-1184.7 122.184)"/><path class="a" d="M531.1,634.475c-6.572,0-13.623-.491-20.422-.981l-5.525-.377c-2.523,0-4.97.139-7.341.227-3.57.126-6.938.239-10.167.239-10.091,0-20.308-1.094-26.489-8.979l-.353-.44-.265-.491a59.809,59.809,0,0,1-7.026-31.791l.618-5.76h55.905l-.442,3.635a28.917,28.917,0,0,1,14.279-3.635H538.29a18.426,18.426,0,0,1,1.261-3.169,72.494,72.494,0,0,1,4.377-7.219c-4.276-.93-7.316-2.515-9.309-4.955-6.509-7.847-6.509-18.5-6.5-19.693l.114-6.112,6.13-.214c.9,0,22.213-.78,33.427-.78,6.408,0,8.1.126,9.978,1.371.076,0,7.669,5.823,7.669,11.859v4.527c.2,15.468.3,25.466.151,27.5s-.378,4.741-25.077,36.042c-6.622,8.162-19.236,9.193-29.479,9.193Z" transform="translate(-1186.424 128.902)"/><path class="b" d="M578.837,555.888c0-1.71-3.507-5.634-4.806-6.489s-39.583.478-39.583.478-.164,9.243,5.046,15.468,30.11,2.364,30.11,2.364-3.444,5.8-15.944,6.652c0,0-2.7,1.56-9.158,13.594-1.047,1.949,6.95,12.576,6.95,14.928,0,0-10.394-8.652-14.834-9.9-3.179-.893-12.3-.629-12.3-.629C505.007,594.093,502.61,612.3,502.61,612.3s-1.678-9.7-5.2-13.682c-7.568-8.5-43.253-3.119-43.253-3.119s-.252,17.9,6.521,27.339c2.523,3.5,8.615,6.917,13.711,7.382,6.547.591,18.593-1.258,31.421-3.647,19.829,1.258,41.715,7.47,49.308-1.861,0,0,23.752-34.507,23.967-37.3S578.837,557.611,578.837,555.888Z" transform="translate(-1186.228 130.224)"/><path class="b" d="M535.481,633.042a68.447,68.447,0,0,0-2.157-9.444,75.893,75.893,0,0,1-17.433-1.484c-1.413,8.174-5.727,50.579-5.727,50.579s-1.526-42.757-4.516-54.981c-.265-1.056-3.974-.251-4.264.78-1.413,5.031-2.838,21.064-2.838,21.064s-4.882-15.695-5.828-18.549c-13.56,1.434-18.089,2.44-18.089,2.44s-2.586,9.381-2.775,11.418c-.227,2.3.315,17.92.315,17.92l-6.231,47.7a145.8,145.8,0,0,0,76.6,2.05l-8.1-55.094S535.62,636.148,535.481,633.042Z" transform="translate(-1183.148 147.765)"/><path class="a" d="M460.5,598.58s.353,10.35,13.535,13.1q8.552,1.886,25.468-2.3S469.115,612.1,460.5,598.58Z" transform="translate(-1184.57 142.965)"/><path class="a" d="M453.88,677.2a136.387,136.387,0,0,0,35.95,10.287s-20.561-2.741-18.4-19.153Z" transform="translate(-1186.301 160.931)"/><path class="a" d="M552.08,676.895a136.567,136.567,0,0,1-35.95,10.287s13.4-1.484,10.406-17.682Z" transform="translate(-1170.029 161.232)"/><path class="a" d="M515.13,610.4s17.5,4.012,23.336-6.841C538.466,603.535,523.644,611.395,515.13,610.4Z" transform="translate(-1170.29 144.248)"/><path class="a" d="M439.13,538.25l.946,66.8,2.523-52.969Z" transform="translate(-1116.844 226.46)"/><path class="a" d="M464.92,600.25s8.3,6.388,18.391,6.074C483.311,606.324,468.275,611.354,464.92,600.25Z" transform="translate(-1183.415 143.395)"/><path class="a" d="M521.25,555.67s3.469,6.6,5.676,7.646a90.215,90.215,0,0,0,17.66.415S526.3,563.216,521.25,555.67Z" transform="translate(-1168.69 131.913)"/><path class="b" d="M105.82,562.982v18.3h16.865v17.291H105.921V634.16H89.75V544.81h34.436v18.172Z" transform="translate(-1281.484 129.116)"/><path class="b" d="M123.93,634.16V544.81H140v89.35Z" transform="translate(-1272.549 129.116)"/><path class="b" d="M170.226,561.976V634.16H154.547V561.976H141.58V544.81h41.626v17.166Z" transform="translate(-1267.936 129.116)"/><path class="b" d="M210.019,634.16l-16.4-54.39h-.3l.391,54.39H179.48V544.81h17.571l16.259,55.157h.3l-.3-55.157h13.774v89.35Z" transform="translate(-1258.029 129.116)"/><path class="b" d="M227.19,634.16V544.81h34.133v17.845H242.466V580.2h17.369v16.663H242.466v19.178h20.056v18.172Z" transform="translate(-1245.557 129.116)"/><path class="b" d="M292.992,566.634a13.671,13.671,0,0,0-4.2-4.1,9.444,9.444,0,0,0-4.983-1.446,6.671,6.671,0,0,0-4.844,2.15c-1.438,1.434-2.144,3.773-2.144,7.08a9.125,9.125,0,0,0,2.195,6.5,35.157,35.157,0,0,0,6.484,5.118,60.714,60.714,0,0,1,5.046,3.609,25.315,25.315,0,0,1,4.882,5.118,28.052,28.052,0,0,1,3.671,7.269,31.349,31.349,0,0,1,1.451,10.06,40.894,40.894,0,0,1-1.8,12.7,26.851,26.851,0,0,1-4.882,9.1,20.389,20.389,0,0,1-7.064,5.433,19.874,19.874,0,0,1-8.313,1.824,22.915,22.915,0,0,1-11.63-3.019,29.291,29.291,0,0,1-8.426-7.068l8.186-15.091a19.251,19.251,0,0,0,5.285,4.854,11.54,11.54,0,0,0,6.168,1.748,6.111,6.111,0,0,0,4.882-2.39,10.139,10.139,0,0,0,2.006-6.69,9.941,9.941,0,0,0-2.4-7,35.884,35.884,0,0,0-6.988-5.483A44.842,44.842,0,0,1,270.136,593a22.459,22.459,0,0,1-4.491-5.181,25.112,25.112,0,0,1-3.053-7.068,36.827,36.827,0,0,1-1.1-9.582,37.9,37.9,0,0,1,1.943-12.815,25.655,25.655,0,0,1,5.046-8.8,20.352,20.352,0,0,1,6.988-5.03,19.5,19.5,0,0,1,7.732-1.635,21.87,21.87,0,0,1,18.063,8.941Z" transform="translate(-1237.391 128.621)"/><path class="b" d="M329.46,566.618a13.641,13.641,0,0,0-4.188-4.1,9.48,9.48,0,0,0-5.046-1.446,6.657,6.657,0,0,0-4.831,2.15c-1.438,1.434-2.157,3.773-2.157,7.08a9.075,9.075,0,0,0,2.208,6.5,35.146,35.146,0,0,0,6.484,5.119,58.545,58.545,0,0,1,5.046,3.609,24.92,24.92,0,0,1,4.869,5.118,27.287,27.287,0,0,1,3.671,7.269,30.935,30.935,0,0,1,1.463,10.06,40.522,40.522,0,0,1-1.816,12.7,26.608,26.608,0,0,1-4.819,9.1,20.311,20.311,0,0,1-7.076,5.433,19.763,19.763,0,0,1-8.3,1.824,22.875,22.875,0,0,1-11.63-3.018,29.128,29.128,0,0,1-8.426-7.067l8.174-15.091a19.293,19.293,0,0,0,5.3,4.854,11.529,11.529,0,0,0,6.08,1.823,6.124,6.124,0,0,0,4.894-2.389,10.14,10.14,0,0,0,1.993-6.69,9.878,9.878,0,0,0-2.4-7,35.38,35.38,0,0,0-6.976-5.483,45.993,45.993,0,0,1-5.449-3.911,23.057,23.057,0,0,1-4.49-5.181,25.108,25.108,0,0,1-3.04-7.068,36.826,36.826,0,0,1-1.1-9.582,37.623,37.623,0,0,1,1.943-12.815,25.661,25.661,0,0,1,5.046-8.8,20.358,20.358,0,0,1,6.988-5.03,19.508,19.508,0,0,1,7.732-1.635,21.875,21.875,0,0,1,18.063,8.891Z" transform="translate(-1227.855 128.636)"/><path class="b" d="M675.28,634.16V544.81h34.133v17.845H690.492V580.2h17.37v16.663H690.556v19.178h20.056v18.172Z" transform="translate(-1128.427 129.116)"/><path class="b" d="M759.433,634.16l.605-61.331h-.4l-11.87,61.331H736.412l-11.466-61.331h-.29l.492,61.331H710.73V544.81h20.183l11.352,57.546h.4l11.075-57.546h21.368v89.35Z" transform="translate(-1119.16 129.116)"/><path class="b" d="M815.359,572.829a41.091,41.091,0,0,1-1.8,12.877,26.513,26.513,0,0,1-4.793,8.954,19.279,19.279,0,0,1-6.786,5.244,18.6,18.6,0,0,1-7.682,1.7h-6.887V634.16H771.74V544.81h21.948a22.26,22.26,0,0,1,7.644,1.4,18.675,18.675,0,0,1,6.988,4.6,23.629,23.629,0,0,1,5.045,8.652A39.8,39.8,0,0,1,815.359,572.829Zm-14.973.377q0-6.062-2.3-8.7a7.122,7.122,0,0,0-5.588-2.653h-5.045v23.34H792.5a6.777,6.777,0,0,0,5.588-3.081Q800.387,579,800.386,573.206Z" transform="translate(-1103.213 129.116)"/><path class="b" d="M813,634.16V544.81h16.07v89.35Z" transform="translate(-1092.427 129.116)"/><path class="b" d="M865.242,634.16l-9.448-35.589h-4.68V634.16H835.75V544.81h22.6q10.255,0,15.932,6.753t5.676,20.121a39.9,39.9,0,0,1-.9,8.8,27.994,27.994,0,0,1-2.334,6.69,17.929,17.929,0,0,1-3.229,4.54,12.241,12.241,0,0,1-3.481,2.515l12.034,39.878Zm-.946-61.331a17.336,17.336,0,0,0-.744-5.546,9.3,9.3,0,0,0-1.955-3.408,6.159,6.159,0,0,0-2.636-1.71,9.962,9.962,0,0,0-2.851-.44h-5.046V584.36h4.692a7.918,7.918,0,0,0,5.941-2.7q2.611-2.766,2.6-8.828Z" transform="translate(-1086.48 129.116)"/><path class="b" d="M878.56,634.16V544.81h34.134v17.845H893.773V580.2h17.369v16.663H893.823v19.178h20.069v18.172Z" transform="translate(-1075.29 129.116)"/></g></svg>